# xmcd CD database file
#
# Track frame offsets:
#	150
#	11182
#	38531
#	56572
#	85085
#	104565
#	131396
#	161076
#	185084
#	215384
#	234230
#	248091
#
# Disc length: 3466 seconds
#
# Revision: 2
# Processed by: cddbd v1.5PL3 Copyright (c) Steve Scherf et al.
# Submitted via: CDex 1.51
#
DISCID=9a0d880c
DTITLE=Lana Lane - Project Shangri-La
DYEAR=2002
DGENRE=Symphonic Rock
TTITLE0=Redemption Part I
TTITLE1=Project Shangri-La
TTITLE2=Encore
TTITLE3=Before You Go
TTITLE4=The Nightingale
TTITLE5=The Beast Whithin You
TTITLE6=Tears Of Babylon
TTITLE7=Ebbtide
TTITLE8=(Life Is) Only A Dream
TTITLE9=Time To Say Goodbye
TTITLE10=Redemption Part II
TTITLE11=I Believe In You
EXTD=YEAR: 2002
EXTT0=
EXTT1=
EXTT2=
EXTT3=
EXTT4=
EXTT5=
EXTT6=
EXTT7=
EXTT8=
EXTT9=
EXTT10=
EXTT11=
PLAYORDER=
